<?xml version="1.0" standalone="no"?><!DOCTYPE svg PUBLIC "-//W3C//DTD SVG 1.1//EN" "http://www.w3.org/Graphics/SVG/1.1/DTD/svg11.dtd"><svg xmlns:xlink="http://www.w3.org/1999/xlink" height="649" width="600" xmlns="http://www.w3.org/2000/svg" style="font-family:signika, serif;font-size:12px;" version="1.1"><desc>Created with Highcharts 4.1.7</desc><defs><clipPath id="highcharts-79"><rect height="354" width="519" y="0" x="0"></rect></clipPath></defs><rect class=" highcharts-background" fill="#FFFFFF" strokeWidth="0" height="649" width="600" y="0" x="0"></rect><g  class="highcharts-grid"></g><g  class="highcharts-grid"><path opacity="1"  stroke-width="1" stroke="#D8D8D8" d="M 71 416.5 L 590 416.5" fill="none"></path><path opacity="1"  stroke-width="1" stroke="#D8D8D8" d="M 71 357.5 L 590 357.5" fill="none"></path><path opacity="1"  stroke-width="1" stroke="#D8D8D8" d="M 71 298.5 L 590 298.5" fill="none"></path><path opacity="1"  stroke-width="1" stroke="#D8D8D8" d="M 71 239.5 L 590 239.5" fill="none"></path><path opacity="1"  stroke-width="1" stroke="#D8D8D8" d="M 71 180.5 L 590 180.5" fill="none"></path><path opacity="1"  stroke-width="1" stroke="#D8D8D8" d="M 71 121.5 L 590 121.5" fill="none"></path><path opacity="1"  stroke-width="1" stroke="#D8D8D8" d="M 71 61.5 L 590 61.5" fill="none"></path></g><g  class="highcharts-axis"><path opacity="1" stroke-width="1" stroke="#C0D0E0" d="M 330.5 416 L 330.5 426" fill="none"></path><path visibility="visible"  stroke-width="1" stroke="#C0D0E0" d="M 71 416.5 L 590 416.5" fill="none"></path></g><g  class="highcharts-axis"><text y="239" visibility="visible" style="color:#707070;fill:#707070;" class=" highcharts-yaxis-title" transform="translate(0,0) rotate(270 25 239)" text-anchor="middle"  x="25">ops/ms</text></g><g  class="highcharts-series-group"><g clip-path="url(#highcharts-79)" transform="translate(71,62) scale(1 1)"  visibility="visible" class="highcharts-series"><rect ry="0" rx="0" fill="#4572A7" stroke-width="1" stroke="#FFFFFF" height="1" width="32" y="353.5" x="3.5"></rect></g><g clip-path="none" transform="translate(71,62) scale(1 1)"  visibility="visible" class="highcharts-markers"></g><g clip-path="url(#highcharts-79)" transform="translate(71,62) scale(1 1)"  visibility="visible" class="highcharts-series"><rect ry="0" rx="0" fill="#AA4643" stroke-width="1" stroke="#FFFFFF" height="11" width="32" y="343.5" x="43.5"></rect></g><g clip-path="none" transform="translate(71,62) scale(1 1)"  visibility="visible" class="highcharts-markers"></g><g clip-path="url(#highcharts-79)" transform="translate(71,62) scale(1 1)"  visibility="visible" class="highcharts-series"><rect ry="0" rx="0" fill="#89A54E" stroke-width="1" stroke="#FFFFFF" height="5" width="32" y="349.5" x="83.5"></rect></g><g clip-path="none" transform="translate(71,62) scale(1 1)"  visibility="visible" class="highcharts-markers"></g><g clip-path="url(#highcharts-79)" transform="translate(71,62) scale(1 1)"  visibility="visible" class="highcharts-series"><rect ry="0" rx="0" fill="#80699B" stroke-width="1" stroke="#FFFFFF" height="1" width="32" y="353.5" x="123.5"></rect></g><g clip-path="none" transform="translate(71,62) scale(1 1)"  visibility="visible" class="highcharts-markers"></g><g clip-path="url(#highcharts-79)" transform="translate(71,62) scale(1 1)"  visibility="visible" class="highcharts-series"><rect ry="0" rx="0" fill="#3D96AE" stroke-width="1" stroke="#FFFFFF" height="1" width="32" y="353.5" x="163.5"></rect></g><g clip-path="none" transform="translate(71,62) scale(1 1)"  visibility="visible" class="highcharts-markers"></g><g clip-path="url(#highcharts-79)" transform="translate(71,62) scale(1 1)"  visibility="visible" class="highcharts-series"><rect ry="0" rx="0" fill="#DB843D" stroke-width="1" stroke="#FFFFFF" height="290" width="32" y="64.5" x="203.5"></rect></g><g clip-path="none" transform="translate(71,62) scale(1 1)"  visibility="visible" class="highcharts-markers"></g><g clip-path="url(#highcharts-79)" transform="translate(71,62) scale(1 1)"  visibility="visible" class="highcharts-series"><rect ry="0" rx="0" fill="#92A8CD" stroke-width="1" stroke="#FFFFFF" height="85" width="32" y="269.5" x="243.5"></rect></g><g clip-path="none" transform="translate(71,62) scale(1 1)"  visibility="visible" class="highcharts-markers"></g><g clip-path="url(#highcharts-79)" transform="translate(71,62) scale(1 1)"  visibility="visible" class="highcharts-series"><rect ry="0" rx="0" fill="#A47D7C" stroke-width="1" stroke="#FFFFFF" height="3" width="32" y="351.5" x="282.5"></rect></g><g clip-path="none" transform="translate(71,62) scale(1 1)"  visibility="visible" class="highcharts-markers"></g><g clip-path="url(#highcharts-79)" transform="translate(71,62) scale(1 1)"  visibility="visible" class="highcharts-series"><rect ry="0" rx="0" fill="#B5CA92" stroke-width="1" stroke="#FFFFFF" height="33" width="32" y="321.5" x="322.5"></rect></g><g clip-path="none" transform="translate(71,62) scale(1 1)"  visibility="visible" class="highcharts-markers"></g><g clip-path="url(#highcharts-79)" transform="translate(71,62) scale(1 1)"  visibility="visible" class="highcharts-series"><rect ry="0" rx="0" fill="#7cb5ec" stroke-width="1" stroke="#FFFFFF" height="40" width="32" y="314.5" x="362.5"></rect></g><g clip-path="none" transform="translate(71,62) scale(1 1)"  visibility="visible" class="highcharts-markers"></g><g clip-path="url(#highcharts-79)" transform="translate(71,62) scale(1 1)"  visibility="visible" class="highcharts-series"><rect ry="0" rx="0" fill="#434348" stroke-width="1" stroke="#FFFFFF" height="37" width="32" y="317.5" x="402.5"></rect></g><g clip-path="none" transform="translate(71,62) scale(1 1)"  visibility="visible" class="highcharts-markers"></g><g clip-path="url(#highcharts-79)" transform="translate(71,62) scale(1 1)"  visibility="visible" class="highcharts-series"><rect ry="0" rx="0" fill="#90ed7d" stroke-width="1" stroke="#FFFFFF" height="31" width="32" y="323.5" x="442.5"></rect></g><g clip-path="none" transform="translate(71,62) scale(1 1)"  visibility="visible" class="highcharts-markers"></g><g clip-path="url(#highcharts-79)" transform="translate(71,62) scale(1 1)"  visibility="visible" class="highcharts-series"><rect ry="0" rx="0" fill="#f7a35c" stroke-width="1" stroke="#FFFFFF" height="51" width="32" y="303.5" x="482.5"></rect></g><g clip-path="none" transform="translate(71,62) scale(1 1)"  visibility="visible" class="highcharts-markers"></g></g><text y="24" style="color:#333333;font-size:18px;fill:#333333;width:536px;"  class="highcharts-title" text-anchor="middle" x="300"><tspan>Throughput scores (ops/ms)</tspan></text><text y="46" style="color:#555555;fill:#555555;width:536px;"  class="highcharts-subtitle" text-anchor="middle" x="300">o.s.Test</text><g transform="translate(230,428)"  class="highcharts-legend"><g ><g><g transform="translate(8,3)"  class="highcharts-legend-item"><text y="15"  text-anchor="start" style="color:#333333;font-size:12px;font-weight:bold;cursor:pointer;fill:#333333;" x="21">slickDelete</text><rect fill="#4572A7"  height="12" width="16" y="4" x="0"></rect></g><g transform="translate(8,18)"  class="highcharts-legend-item"><text  text-anchor="start" style="color:#333333;font-size:12px;font-weight:bold;cursor:pointer;fill:#333333;" y="15" x="21">slickInsertBatch</text><rect fill="#AA4643"  height="12" width="16" y="4" x="0"></rect></g><g transform="translate(8,33)"  class="highcharts-legend-item"><text  text-anchor="start" style="color:#333333;font-size:12px;font-weight:bold;cursor:pointer;fill:#333333;" y="15" x="21">slickInsertSeparate</text><rect fill="#89A54E"  height="12" width="16" y="4" x="0"></rect></g><g transform="translate(8,48)"  class="highcharts-legend-item"><text  text-anchor="start" style="color:#333333;font-size:12px;font-weight:bold;cursor:pointer;fill:#333333;" y="15" x="21">slickQuery</text><rect fill="#80699B"  height="12" width="16" y="4" x="0"></rect></g><g transform="translate(8,63)"  class="highcharts-legend-item"><text  text-anchor="start" style="color:#333333;font-size:12px;font-weight:bold;cursor:pointer;fill:#333333;" y="15" x="21">slickUpdate</text><rect fill="#3D96AE"  height="12" width="16" y="4" x="0"></rect></g><g transform="translate(8,78)"  class="highcharts-legend-item"><text  text-anchor="start" style="color:#333333;font-size:12px;font-weight:bold;cursor:pointer;fill:#333333;" y="15" x="21">srDelete</text><rect fill="#DB843D"  height="12" width="16" y="4" x="0"></rect></g><g transform="translate(8,93)"  class="highcharts-legend-item"><text  text-anchor="start" style="color:#333333;font-size:12px;font-weight:bold;cursor:pointer;fill:#333333;" y="15" x="21">srInsertBatch</text><rect fill="#92A8CD"  height="12" width="16" y="4" x="0"></rect></g><g transform="translate(8,108)"  class="highcharts-legend-item"><text  text-anchor="start" style="color:#333333;font-size:12px;font-weight:bold;cursor:pointer;fill:#333333;" y="15" x="21">srInsertMapper</text><rect fill="#A47D7C"  height="12" width="16" y="4" x="0"></rect></g><g transform="translate(8,123)"  class="highcharts-legend-item"><text  text-anchor="start" style="color:#333333;font-size:12px;font-weight:bold;cursor:pointer;fill:#333333;" y="15" x="21">srInsertSeparate</text><rect fill="#B5CA92"  height="12" width="16" y="4" x="0"></rect></g><g transform="translate(8,138)"  class="highcharts-legend-item"><text  text-anchor="start" style="color:#333333;font-size:12px;font-weight:bold;cursor:pointer;fill:#333333;" y="15" x="21">srQueryConvert</text><rect fill="#7cb5ec"  height="12" width="16" y="4" x="0"></rect></g><g transform="translate(8,153)"  class="highcharts-legend-item"><text  text-anchor="start" style="color:#333333;font-size:12px;font-weight:bold;cursor:pointer;fill:#333333;" y="15" x="21">srQueryMap</text><rect fill="#434348"  height="12" width="16" y="4" x="0"></rect></g><g transform="translate(8,168)"  class="highcharts-legend-item"><text  text-anchor="start" style="color:#333333;font-size:12px;font-weight:bold;cursor:pointer;fill:#333333;" y="15" x="21">srQueryTo</text><rect fill="#90ed7d"  height="12" width="16" y="4" x="0"></rect></g><g transform="translate(8,183)"  class="highcharts-legend-item"><text  text-anchor="start" style="color:#333333;font-size:12px;font-weight:bold;cursor:pointer;fill:#333333;" y="15" x="21">srUpdate</text><rect fill="#f7a35c"  height="12" width="16" y="4" x="0"></rect></g></g></g></g><g  class="highcharts-axis-labels highcharts-xaxis-labels"></g><g  class="highcharts-axis-labels highcharts-yaxis-labels"><text opacity="1" y="421" transform="translate(0,0)" text-anchor="end" style="color:#606060;cursor:default;font-size:11px;fill:#606060;width:188px;text-overflow:clip;" x="56">0</text><text opacity="1" y="362" transform="translate(0,0)" text-anchor="end" style="color:#606060;cursor:default;font-size:11px;fill:#606060;width:188px;text-overflow:clip;" x="56">0.25</text><text opacity="1" y="303" transform="translate(0,0)" text-anchor="end" style="color:#606060;cursor:default;font-size:11px;fill:#606060;width:188px;text-overflow:clip;" x="56">0.5</text><text opacity="1" y="244" transform="translate(0,0)" text-anchor="end" style="color:#606060;cursor:default;font-size:11px;fill:#606060;width:188px;text-overflow:clip;" x="56">0.75</text><text opacity="1" y="185" transform="translate(0,0)" text-anchor="end" style="color:#606060;cursor:default;font-size:11px;fill:#606060;width:188px;text-overflow:clip;" x="56">1</text><text opacity="1" y="126" transform="translate(0,0)" text-anchor="end" style="color:#606060;cursor:default;font-size:11px;fill:#606060;width:188px;text-overflow:clip;" x="56">1.25</text><text opacity="1" y="67" transform="translate(0,0)" text-anchor="end" style="color:#606060;cursor:default;font-size:11px;fill:#606060;width:188px;text-overflow:clip;" x="56">1.5</text></g><g transform="translate(0,-9999)" style="cursor:default;padding:0;white-space:nowrap;"  class="highcharts-tooltip"><path transform="translate(1, 1)" stroke-width="5" stroke-opacity="0.049999999999999996" stroke="black"  d="M 3.5 0.5 L 13.5 0.5 C 16.5 0.5 16.5 0.5 16.5 3.5 L 16.5 13.5 C 16.5 16.5 16.5 16.5 13.5 16.5 L 3.5 16.5 C 0.5 16.5 0.5 16.5 0.5 13.5 L 0.5 3.5 C 0.5 0.5 0.5 0.5 3.5 0.5" fill="none"></path><path transform="translate(1, 1)" stroke-width="3" stroke-opacity="0.09999999999999999" stroke="black"  d="M 3.5 0.5 L 13.5 0.5 C 16.5 0.5 16.5 0.5 16.5 3.5 L 16.5 13.5 C 16.5 16.5 16.5 16.5 13.5 16.5 L 3.5 16.5 C 0.5 16.5 0.5 16.5 0.5 13.5 L 0.5 3.5 C 0.5 0.5 0.5 0.5 3.5 0.5" fill="none"></path><path transform="translate(1, 1)" stroke-width="1" stroke-opacity="0.15" stroke="black"  d="M 3.5 0.5 L 13.5 0.5 C 16.5 0.5 16.5 0.5 16.5 3.5 L 16.5 13.5 C 16.5 16.5 16.5 16.5 13.5 16.5 L 3.5 16.5 C 0.5 16.5 0.5 16.5 0.5 13.5 L 0.5 3.5 C 0.5 0.5 0.5 0.5 3.5 0.5" fill="none"></path><path d="M 3.5 0.5 L 13.5 0.5 C 16.5 0.5 16.5 0.5 16.5 3.5 L 16.5 13.5 C 16.5 16.5 16.5 16.5 13.5 16.5 L 3.5 16.5 C 0.5 16.5 0.5 16.5 0.5 13.5 L 0.5 3.5 C 0.5 0.5 0.5 0.5 3.5 0.5" fill="rgb(249, 249, 249)" fill-opacity=" .85"></path><text y="20" style="font-size:12px;color:#333333;fill:#333333;"  x="8"></text></g></svg>